<?xml version="1.0" encoding="UTF-8"?>
<svg width="100px" height="100px" viewBox="0 0 100 100" version="1.1" xmlns="http://www.w3.org/2000/svg" xmlns:xlink="http://www.w3.org/1999/xlink">
    <title>A247A400-26BE-4A5C-A88A-B4760362FEEC</title>
    <g id="Desktop" stroke="none" stroke-width="1" fill="none" fill-rule="evenodd">
        <g id="01_[Desktop]_Homepage" transform="translate(-465.000000, -605.000000)">
            <g id="Dishwashers" transform="translate(465.000000, 605.000000)">
                <rect id="Rectangle" x="0" y="0" width="100" height="100"></rect>
                <g id="10-dish-washer" transform="translate(24.000000, 14.000000)" fill="#011E41" fill-rule="nonzero">
                    <path d="M49.3,0.2 L2.7,0.2 C1.4,0.2 0.4,1.2 0.4,2.5 L0.4,66.2 C0.4,67.5 1.4,68.5 2.7,68.5 L49.4,68.5 C50.7,68.5 51.7,67.5 51.7,66.2 L51.7,2.5 C51.7,1.2 50.6,0.2 49.3,0.2 Z M50.4,66.2 C50.4,66.8 49.9,67.2 49.4,67.2 L2.7,67.2 C2.1,67.2 1.7,66.7 1.7,66.2 L1.7,60.7 L50.5,60.7 L50.5,59.6 L1.6,59.6 L1.6,2.5 C1.6,1.9 2.1,1.5 2.6,1.5 L49.3,1.5 C49.9,1.5 50.3,2 50.3,2.5 L50.4,66.2 L50.4,66.2 Z" id="Shape"></path>
                    <path d="M4.8,19.6 L47.1,19.6 L47.1,14.4 L4.8,14.4 L4.8,19.6 Z M5.9,15.5 L46.1,15.5 L46.1,18.6 L5.9,18.6 L5.9,15.5 Z" id="Shape"></path>
                    <path d="M49.5,70.6 L2.5,70.6 C2.1,70.6 1.9,70.9 1.9,71.2 C1.9,71.5 2.2,71.8 2.5,71.8 L49.6,71.8 C50,71.8 50.2,71.5 50.2,71.2 C50.2,70.9 49.9,70.6 49.5,70.6 Z" id="Path"></path>
                    <rect id="Rectangle" x="42.4" y="7.2" width="1.3" height="2.5"></rect>
                    <rect id="Rectangle" x="36.8" y="7.2" width="1.3" height="2.5"></rect>
                    <rect id="Rectangle" x="31.3" y="7.2" width="1.3" height="2.5"></rect>
                </g>
            </g>
        </g>
    </g>
</svg>