<?xml version="1.0" encoding="UTF-8"?>
<svg width="55px" height="55px" viewBox="0 0 55 55" version="1.1" xmlns="http://www.w3.org/2000/svg" xmlns:xlink="http://www.w3.org/1999/xlink">
    <title>6BF31164-525C-4070-BFAC-21F712A34D7E</title>
    <g id="Desktop" stroke="none" stroke-width="1" fill="none" fill-rule="evenodd">
        <g id="01_[Desktop]_Homepage" transform="translate(-1143.000000, -1005.000000)" fill="#011E41" fill-rule="nonzero">
            <g id="free-returns-icon" transform="translate(1143.000000, 1005.000000)">
                <path d="M27.5,1.71875 C41.7385912,1.71875 53.28125,13.2614088 53.28125,27.5 C53.28125,41.7385912 41.7385912,53.28125 27.5,53.28125 C13.2614088,53.28125 1.71875,41.7385912 1.71875,27.5 C1.73390689,13.2676917 13.2676917,1.73390689 27.5,1.71875 M27.5,0 C12.3121694,0 0,12.3121694 0,27.5 C0,42.6878306 12.3121694,55 27.5,55 C42.6878306,55 55,42.6878306 55,27.5 C55,20.2065465 52.1026869,13.2118139 46.9454365,8.05456352 C41.7881861,2.89731311 34.7934535,0 27.5,0 Z" id="Shape"></path>
                <polygon id="Path" points="16.8575 37.310625 20.94125 37.310625 20.94125 38.286875 18.074375 38.286875 18.074375 39.771875 20.69375 39.771875 20.69375 40.74125 18.074375 40.74125 18.074375 43.264375 16.8575 43.264375"></polygon>
                <path d="M22.28875,37.310625 L24.908125,37.310625 C26.0255204,37.2391044 26.9958902,38.0721577 27.094375,39.1875 C27.0901044,39.9549407 26.5982416,40.6347061 25.870625,40.87875 L27.5,43.264375 L26.125,43.264375 L24.701875,41.15375 L23.505625,41.15375 L23.505625,43.264375 L22.28875,43.264375 L22.28875,37.310625 Z M24.784375,40.19125 C25.0673254,40.2207003 25.3493786,40.1278613 25.559519,39.9361082 C25.7696594,39.7443551 25.8878654,39.4719575 25.884375,39.1875 C25.8811607,38.9289956 25.7718328,38.6831765 25.5820178,38.5076627 C25.3922029,38.3321488 25.1385896,38.2423717 24.880625,38.259375 L23.505625,38.259375 L23.505625,40.16375 L24.784375,40.19125 Z" id="Shape"></path>
                <path d="M28.551875,37.310625 L32.73875,37.310625 L32.73875,38.286875 L29.761875,38.286875 L29.761875,39.661875 L32.54625,39.661875 L32.54625,40.63125 L29.761875,40.63125 L29.761875,41.366875 C29.7545996,41.6183556 29.8561555,41.8607525 30.040516,42.0319443 C30.2248765,42.2031362 30.4741215,42.2864831 30.724375,42.260625 L32.786875,42.260625 L32.786875,43.236875 L30.669375,43.236875 C29.24625,43.236875 28.551875,42.549375 28.551875,41.339375 L28.551875,37.310625 Z" id="Path"></path>
                <path d="M34.161875,37.310625 L38.355625,37.310625 L38.355625,38.286875 L35.37875,38.286875 L35.37875,39.661875 L38.12875,39.661875 L38.12875,40.63125 L35.37875,40.63125 L35.37875,41.366875 C35.3714746,41.6183556 35.4730305,41.8607525 35.657391,42.0319443 C35.8417515,42.2031362 36.0909965,42.2864831 36.34125,42.260625 L38.40375,42.260625 L38.40375,43.236875 L36.28625,43.236875 C34.85625,43.236875 34.161875,42.549375 34.161875,41.339375 L34.161875,37.310625 Z" id="Path"></path>
                <path d="M27.341875,22.59125 C27.2408805,22.5902908 27.1408318,22.5716771 27.04625,22.53625 L19.58,19.78625 C19.2401305,19.6628939 19.0138218,19.3400008 19.0138218,18.9784375 C19.0138218,18.6168742 19.2401305,18.2939811 19.58,18.170625 L27.04625,15.455 C27.237336,15.3862404 27.446414,15.3862404 27.6375,15.455 L35.096875,18.170625 C35.4367445,18.2939811 35.6630532,18.6168742 35.6630532,18.9784375 C35.6630532,19.3400008 35.4367445,19.6628939 35.096875,19.78625 L27.6375,22.53625 C27.5427368,22.5710204 27.4428025,22.5896128 27.341875,22.59125 L27.341875,22.59125 Z M22.391875,19.01625 L27.341875,20.8175 L32.3125,19.01625 L27.341875,17.1875 L22.391875,19.01625 Z" id="Shape"></path>
                <path d="M27.2525,33.103125 C27.1366852,33.1035191 27.0220239,33.0801188 26.915625,33.034375 L19.53875,29.87875 C19.2230863,29.7422873 19.0180388,29.432018 19.01625,29.088125 L19.01625,19.01625 C19.01625,18.5416303 19.4010053,18.156875 19.875625,18.156875 C20.3502447,18.156875 20.735,18.5416303 20.735,19.01625 L20.735,28.5175 L26.393125,30.9375 L26.393125,21.731875 C26.393125,21.2572553 26.7778803,20.8725 27.2525,20.8725 C27.7271197,20.8725 28.111875,21.2572553 28.111875,21.731875 L28.111875,32.24375 C28.1229124,32.5454404 27.977319,32.8314275 27.726875,33 C27.5814186,33.0778252 27.4171387,33.1135383 27.2525,33.103125 Z" id="Path"></path>
                <path d="M27.2525,33.103125 C26.9064041,33.1019706 26.5947747,32.8933144 26.461875,32.57375 C26.3731757,32.3641808 26.3719475,32.1278468 26.4584637,31.917367 C26.54498,31.7068872 26.7120585,31.5397345 26.9225,31.453125 L33.941875,28.5175 L33.941875,19.01625 C33.941875,18.5416303 34.3266303,18.156875 34.80125,18.156875 C35.2758697,18.156875 35.660625,18.5416303 35.660625,19.01625 L35.660625,29.088125 C35.660625,29.4325618 35.4549949,29.7437308 35.138125,29.87875 L27.575625,33.034375 C27.4734841,33.0783125 27.3636808,33.1016749 27.2525,33.103125 L27.2525,33.103125 Z" id="Path"></path>
                <path d="M34.80125,26.8125 C34.418163,26.8093301 34.0826536,26.5549021 33.97625,26.186875 C33.9128619,25.9680441 33.9397025,25.7329454 34.0507833,25.5340332 C34.1618642,25.335121 34.347942,25.188947 34.5675,25.128125 C36.8994277,24.5434281 38.5572361,22.4781923 38.62375,20.075 L38.62375,18.7 C38.62375,15.778125 36.01125,13.40625 32.800625,13.40625 L17.53125,13.40625 C17.0566303,13.40625 16.671875,13.0214947 16.671875,12.546875 C16.671875,12.0722553 17.0566303,11.6875 17.53125,11.6875 L32.800625,11.6875 C36.925625,11.6875 40.363125,14.83625 40.363125,18.7 L40.363125,20.075 C40.2910339,23.2377974 38.1258729,25.9674168 35.0625,26.7575 C34.9783702,26.7877948 34.8904532,26.8063037 34.80125,26.8125 L34.80125,26.8125 Z" id="Path"></path>
                <path d="M20.44625,16.396875 C20.2546355,16.3989933 20.0679831,16.3359678 19.916875,16.218125 L16.039375,13.193125 C15.8281508,13.0279845 15.7061051,12.7737227 15.709375,12.505625 C15.7081936,12.2379935 15.8298208,11.9846035 16.039375,11.818125 L19.9375,8.81375 C20.3171958,8.52138426 20.8620093,8.59217923 21.154375,8.971875 C21.4467407,9.35157077 21.3759458,9.89638426 20.99625,10.18875 L17.991875,12.533125 L20.99625,14.8775 C21.282425,15.1040811 21.3942437,15.4867198 21.2751096,15.8317447 C21.1559754,16.1767696 20.8318847,16.4088924 20.466875,16.410625 L20.44625,16.396875 Z" id="Path"></path>
            </g>
        </g>
    </g>
</svg>