<?xml version="1.0" encoding="UTF-8"?>
<svg width="55px" height="55px" viewBox="0 0 55 55" version="1.1" xmlns="http://www.w3.org/2000/svg" xmlns:xlink="http://www.w3.org/1999/xlink">
    <title>1529FB07-CC44-4D48-B07E-358B644E3CDB</title>
    <g id="Desktop" stroke="none" stroke-width="1" fill="none" fill-rule="evenodd">
        <g id="01_[Desktop]_Homepage" transform="translate(-243.000000, -1005.000000)" fill="#011E41" fill-rule="nonzero">
            <g id="free-shipping-icon" transform="translate(243.000000, 1005.000000)">
                <path d="M27.5,1.71875 C41.7385912,1.71875 53.28125,13.2614088 53.28125,27.5 C53.28125,41.7385912 41.7385912,53.28125 27.5,53.28125 C13.2614088,53.28125 1.71875,41.7385912 1.71875,27.5 C1.73390689,13.2676917 13.2676917,1.73390689 27.5,1.71875 M27.5,0 C12.3121694,0 0,12.3121694 0,27.5 C0,42.6878306 12.3121694,55 27.5,55 C42.6878306,55 55,42.6878306 55,27.5 C55,20.2065465 52.1026869,13.2118139 46.9454365,8.05456352 C41.7881861,2.89731311 34.7934535,0 27.5,0 Z" id="Shape"></path>
                <path d="M41.765625,28.82 L41.765625,28.82 L39.084375,28.82 C38.7046792,28.82 38.396875,28.5121958 38.396875,28.1325 C38.396875,27.7528042 38.7046792,27.445 39.084375,27.445 L39.084375,27.445 L41.07125,27.445 L41.07125,22.78375 L39.4075,21.168125 L31.80375,21.168125 C31.4240542,21.168125 31.11625,20.8603208 31.11625,20.480625 L31.11625,14.293125 L15.30375,14.293125 C14.9240542,14.293125 14.61625,13.9853208 14.61625,13.605625 C14.61625,13.2259292 14.9240542,12.918125 15.30375,12.918125 L31.80375,12.918125 C32.1834458,12.918125 32.49125,13.2259292 32.49125,13.605625 L32.49125,19.793125 L39.689375,19.793125 C39.8687627,19.7920474 40.0414667,19.861129 40.170625,19.985625 L42.233125,21.993125 C42.3660436,22.1234051 42.440462,22.3020092 42.4393867,22.488125 L42.4393867,28.1325 C42.4404315,28.3152396 42.3686907,28.4908808 42.24,28.620625 C42.1136453,28.7459843 41.9435969,28.8174539 41.765625,28.82 L41.765625,28.82 Z" id="Path"></path>
                <path d="M23.08625,17.875 L15.296875,17.875 C14.9171792,17.875 14.609375,17.5671958 14.609375,17.1875 C14.609375,16.8078042 14.9171792,16.5 15.296875,16.5 L23.08625,16.5 C23.4659458,16.5 23.77375,16.8078042 23.77375,17.1875 C23.77375,17.5671958 23.4659458,17.875 23.08625,17.875 Z" id="Path"></path>
                <path d="M23.08625,21.168125 L15.296875,21.168125 C14.9171792,21.168125 14.609375,20.8603208 14.609375,20.480625 C14.609375,20.1009292 14.9171792,19.793125 15.296875,19.793125 L23.08625,19.793125 C23.4659458,19.793125 23.77375,20.1009292 23.77375,20.480625 C23.77375,20.8603208 23.4659458,21.168125 23.08625,21.168125 Z" id="Path"></path>
                <path d="M23.08625,24.475 L15.296875,24.475 C14.9171792,24.475 14.609375,24.1671958 14.609375,23.7875 C14.609375,23.4078042 14.9171792,23.1 15.296875,23.1 L23.08625,23.1 C23.4659458,23.1 23.77375,23.4078042 23.77375,23.7875 C23.77375,24.1671958 23.4659458,24.475 23.08625,24.475 Z" id="Path"></path>
                <path d="M38.9125,21.168125 C38.6273175,21.1661976 38.3729346,20.9884031 38.273125,20.72125 L36.61625,16.369375 L31.879375,16.369375 C31.4996792,16.369375 31.191875,16.0615708 31.191875,15.681875 C31.191875,15.3021792 31.4996792,14.9943713 31.879375,14.9943713 L37.125,14.9943713 C37.4126999,14.9934405 37.670556,15.1717453 37.77125,15.44125 L39.593125,20.25375 C39.7138625,20.6046502 39.5343371,20.9880435 39.1875,21.12 C39.1005621,21.1563243 39.0066069,21.1727665 38.9125,21.168125 L38.9125,21.168125 Z" id="Path"></path>
                <path d="M22.831875,31.714375 C20.8536601,31.714375 19.25,30.1107149 19.25,28.1325 C19.25,26.1542851 20.8536601,24.550625 22.831875,24.550625 C24.8100899,24.550625 26.41375,26.1542851 26.41375,28.1325 C26.4099669,30.1091458 24.8085208,31.7105919 22.831875,31.714375 Z M22.831875,25.925625 C21.6130516,25.925625 20.625,26.9136766 20.625,28.1325 C20.625,29.3513234 21.6130516,30.339375 22.831875,30.339375 C24.0506984,30.339375 25.03875,29.3513234 25.03875,28.1325 C25.03875,26.9136766 24.0506984,25.925625 22.831875,25.925625 Z" id="Shape"></path>
                <path d="M36.018125,31.714375 C34.0399101,31.714375 32.43625,30.1107149 32.43625,28.1325 C32.43625,26.1542851 34.0399101,24.550625 36.018125,24.550625 C37.9963399,24.550625 39.6,26.1542851 39.6,28.1325 C39.5962169,30.1091458 37.9947708,31.7105919 36.018125,31.714375 Z M36.018125,25.925625 C34.7993016,25.925625 33.81125,26.9136766 33.81125,28.1325 C33.81125,29.3513234 34.7993016,30.339375 36.018125,30.339375 C37.2369484,30.339375 38.225,29.3513234 38.225,28.1325 C38.225,26.9136766 37.2369484,25.925625 36.018125,25.925625 Z" id="Shape"></path>
                <path d="M33.075625,28.82 L25.75375,28.82 C25.3740542,28.82 25.06625,28.5121958 25.06625,28.1325 C25.06625,27.7528042 25.3740542,27.445 25.75375,27.445 L33.075625,27.445 C33.4553208,27.445 33.763125,27.7528042 33.763125,28.1325 C33.763125,28.5121958 33.4553208,28.82 33.075625,28.82 Z" id="Path"></path>
                <path d="M19.9375,28.82 L15.296875,28.82 C14.9171792,28.82 14.609375,28.5121958 14.609375,28.1325 C14.609375,27.7528042 14.9171792,27.445 15.296875,27.445 L19.9375,27.445 C20.3171958,27.445 20.625,27.7528042 20.625,28.1325 C20.625,28.5121958 20.3171958,28.82 19.9375,28.82 Z" id="Path"></path>
                <polygon id="Path" points="16.974375 37.310625 21.058125 37.310625 21.058125 38.286875 18.19125 38.286875 18.19125 39.771875 20.810625 39.771875 20.810625 40.74125 18.19125 40.74125 18.19125 43.264375 16.974375 43.264375"></polygon>
                <path d="M22.405625,37.310625 L25.025,37.310625 C26.1423954,37.2391044 27.1127652,38.0721577 27.21125,39.1875 C27.2069794,39.9549407 26.7151166,40.6347061 25.9875,40.87875 L27.616875,43.250625 L26.241875,43.250625 L24.81875,41.15375 L23.6225,41.15375 L23.6225,43.264375 L22.405625,43.264375 L22.405625,37.310625 Z M24.90125,40.19125 C25.1842004,40.2207003 25.4662536,40.1278613 25.676394,39.9361082 C25.8865344,39.7443551 26.0047404,39.4719575 26.00125,39.1875 C25.9980357,38.9289956 25.8887078,38.6831765 25.6988928,38.5076627 C25.5090779,38.3321488 25.2554646,38.2423717 24.9975,38.259375 L23.6225,38.259375 L23.6225,40.16375 L24.90125,40.19125 Z" id="Shape"></path>
                <path d="M28.66875,37.310625 L32.855625,37.310625 L32.855625,38.286875 L29.87875,38.286875 L29.87875,39.661875 L32.62875,39.661875 L32.62875,40.63125 L29.87875,40.63125 L29.87875,41.366875 C29.8714746,41.6183556 29.9730305,41.8607525 30.157391,42.0319443 C30.3417515,42.2031362 30.5909965,42.2864831 30.84125,42.260625 L32.90375,42.260625 L32.90375,43.236875 L30.78625,43.236875 C29.363125,43.236875 28.66875,42.549375 28.66875,41.339375 L28.66875,37.310625 Z" id="Path"></path>
                <path d="M34.27875,37.310625 L38.5,37.310625 L38.5,38.286875 L35.495625,38.286875 L35.495625,39.661875 L38.245625,39.661875 L38.245625,40.63125 L35.495625,40.63125 L35.495625,41.366875 C35.4883496,41.6183556 35.5899055,41.8607525 35.774266,42.0319443 C35.9586265,42.2031362 36.2078715,42.2864831 36.458125,42.260625 L38.520625,42.260625 L38.520625,43.236875 L36.4375,43.236875 C35.0075,43.236875 34.313125,42.549375 34.313125,41.339375 L34.27875,37.310625 Z" id="Path"></path>
            </g>
        </g>
    </g>
</svg>