<?xml version="1.0" encoding="utf-8"?>
<!-- Generator: Adobe Illustrator 24.1.0, SVG Export Plug-In . SVG Version: 6.00 Build 0)  -->
<svg version="1.1" id="Layer_1" xmlns="http://www.w3.org/2000/svg" xmlns:xlink="http://www.w3.org/1999/xlink" x="0px" y="0px"
	 viewBox="0 0 55 55" style="enable-background:new 0 0 55 55;" xml:space="preserve">
<style type="text/css">
	.st0{fill:#011E41;}
</style>
<polygon class="st0" points="22.9,34.5 24.6,36.3 23.2,37.7 21.9,36.3 15.2,43 12.2,39.9 18.8,33.3 17.5,31.9 18.9,30.5 20.7,32.3 
	25.1,27.9 24.1,26.8 20.7,30.3 18.9,28.5 15.4,31.9 16.8,33.3 10.1,39.9 15.2,45 21.9,38.4 23.2,39.7 26.7,36.3 24.9,34.5 
	28.3,31.1 27.3,30 "/>
<polygon class="st0" points="29.1,23.9 35.1,17.9 34.7,17.6 35.3,15.3 39.9,12.5 42.6,15.3 39.9,19.9 37.6,20.5 37.2,20.1 31.3,26 
	32.3,27.1 37.3,22.1 40.8,21.1 44.4,15 40.1,10.7 34,14.3 33.1,17.9 28.1,22.8 "/>
<path class="st0" d="M24.9,28.1l4.4-4.4L23.6,18l0.1-0.2c0.7-2.3,0-4.9-1.7-6.6c-2.6-2.6-6.9-2.6-9.5,0c-0.3,0.3-0.6,0.7-0.9,1
	L11,13.2l5.9,1.1c0.1,0,0.2,0,0.2,0c0.3,0.1,0.6,0.3,0.8,0.5c0.2,0.3,0.3,0.6,0.2,1c-0.1,0.3-0.3,0.6-0.5,0.8
	c-0.3,0.2-0.6,0.3-1,0.2c-0.1,0-0.1,0-0.2,0l-0.1,0l-5.9-1.1l0.1,1c0.1,1.6,0.8,3,1.9,4.1c0,0,0,0,0,0c1.7,1.7,4.2,2.4,6.6,1.7
	l0.2-0.1L24.9,28.1z M19.6,20.7l-0.4,0.2c-2,0.8-4.2,0.3-5.7-1.2c0,0,0,0,0,0c-0.5-0.5-0.8-1-1.1-1.6l-0.3-0.7l3.9,0.7
	c0.1,0,0.2,0.1,0.3,0.1c0.7,0.1,1.5,0,2.1-0.4c0.6-0.4,1-1,1.2-1.7c0.3-1.5-0.7-2.9-2.2-3.2c-0.1,0-0.2,0-0.3,0l-3.6-0.7l0.7-0.5
	c2.1-1.5,4.9-1.2,6.7,0.6c1.5,1.5,1.9,3.7,1.2,5.7l-0.2,0.4l5.3,5.3L24.9,26L19.6,20.7z"/>
<path class="st0" d="M43.9,42.6c0.3-0.3,0.6-0.7,0.8-1l0.6-0.9l-5.9-1.1c0,0-0.1,0-0.2,0c-0.7-0.1-1.2-0.8-1-1.5
	c0.1-0.3,0.3-0.6,0.5-0.8c0.3-0.2,0.6-0.3,1-0.2c0.1,0,0.1,0,0.2,0l6,1.2l-0.1-1c-0.1-1.6-0.8-3-1.9-4.1c-1.7-1.7-4.2-2.4-6.6-1.7
	l-0.2,0.1l-5.6-5.6l-4.4,4.4l5.6,5.6L32.7,36c-0.7,2.3,0,4.9,1.7,6.6c1.3,1.3,3,2,4.7,2C40.9,44.6,42.6,43.9,43.9,42.6z M35.4,41.6
	c-1.5-1.5-1.9-3.7-1.2-5.7l0.2-0.4l-5.3-5.3l2.3-2.3l5.3,5.3l0.4-0.2c2-0.8,4.2-0.3,5.7,1.2c0.5,0.5,0.8,1,1.1,1.6l0.3,0.7l-3.8-0.7
	c-0.1,0-0.2-0.1-0.3-0.1c-0.7-0.1-1.4,0-2.1,0.4c-0.6,0.4-1,1-1.2,1.8c-0.1,0.7,0,1.4,0.4,2.1c0.4,0.6,1,1,1.7,1.2
	c0.1,0,0.2,0,0.3,0l3.6,0.7l-0.7,0.5C40.1,43.7,37.2,43.4,35.4,41.6z"/>
<path id="Shape" class="st0" d="M27.4,1.7c14.2,0,25.8,11.5,25.8,25.8S41.7,53.3,27.4,53.3S1.6,41.7,1.6,27.5
	C1.7,13.3,13.2,1.7,27.4,1.7 M27.4,0C12.2,0-0.1,12.3-0.1,27.5S12.2,55,27.4,55s27.5-12.3,27.5-27.5c0-7.3-2.9-14.3-8.1-19.4
	S34.7,0,27.4,0z"/>
</svg>
