<?xml version="1.0" encoding="UTF-8"?>
<svg width="100px" height="100px" viewBox="0 0 100 100" version="1.1" xmlns="http://www.w3.org/2000/svg" xmlns:xlink="http://www.w3.org/1999/xlink">
    <title>1FF06121-96B0-46B3-B77F-2A572A237337</title>
    <g id="Desktop" stroke="none" stroke-width="1" fill="none" fill-rule="evenodd">
        <g id="01_[Desktop]_Homepage" transform="translate(-1081.000000, -605.000000)">
            <g id="Hobs" transform="translate(1081.000000, 605.000000)">
                <rect id="Rectangle" x="0" y="0" width="100" height="100"></rect>
                <g id="12-hob" transform="translate(14.000000, 23.000000)" fill="#011E41">
                    <path d="M0.1,0.9 L0.1,53.1 L71.8,53.1 L71.8,0.9 L0.1,0.9 Z M70.5,51.8 L1.5,51.8 L1.5,2.2 L70.6,2.2 L70.5,51.8 L70.5,51.8 Z" id="Shape"></path>
                    <path d="M13.7,17 C16.2,17 18.2,15 18.2,12.5 C18.2,10 16.2,8 13.7,8 C11.2,8 9.2,10 9.2,12.5 C9.2,15 11.2,17 13.7,17 Z M13.7,9.1 C15.6,9.1 17.1,10.6 17.1,12.5 C17.1,14.4 15.6,15.9 13.7,15.9 C11.8,15.9 10.3,14.4 10.3,12.5 C10.3,10.7 11.8,9.1 13.7,9.1 Z" id="Shape"></path>
                    <path d="M13.1,33.2 C13.1,35.7 15.1,37.7 17.6,37.7 C20.1,37.7 22.1,35.7 22.1,33.2 C22.1,30.7 20.1,28.7 17.6,28.7 C15.1,28.7 13.1,30.7 13.1,33.2 Z M21,33.2 C21,35.1 19.5,36.6 17.6,36.6 C15.7,36.6 14.2,35.1 14.2,33.2 C14.2,31.3 15.7,29.8 17.6,29.8 C19.5,29.8 21,31.3 21,33.2 Z" id="Shape"></path>
                    <path d="M58.3,17 C60.8,17 62.8,15 62.8,12.5 C62.8,10 60.8,8 58.3,8 C55.8,8 53.8,10 53.8,12.5 C53.9,15 55.9,17 58.3,17 Z M58.3,9.1 C60.2,9.1 61.7,10.6 61.7,12.5 C61.7,14.4 60.2,15.9 58.3,15.9 C56.4,15.9 54.9,14.4 54.9,12.5 C55,10.7 56.5,9.1 58.3,9.1 Z" id="Shape"></path>
                    <path d="M54.4,37.7 C56.9,37.7 58.9,35.7 58.9,33.2 C58.9,30.7 56.9,28.7 54.4,28.7 C51.9,28.7 49.9,30.7 49.9,33.2 C49.9,35.7 52,37.7 54.4,37.7 Z M54.4,29.8 C56.3,29.8 57.8,31.3 57.8,33.2 C57.8,35.1 56.3,36.6 54.4,36.6 C52.5,36.6 51,35.1 51,33.2 C51,31.3 52.5,29.8 54.4,29.8 Z" id="Shape"></path>
                    <path d="M36,28.7 C39,28.7 41.4,26.3 41.4,23.3 C41.4,20.3 39,17.9 36,17.9 C33,17.9 30.6,20.3 30.6,23.3 C30.6,26.3 33,28.7 36,28.7 Z M36,19 C38.4,19 40.4,21 40.4,23.4 C40.4,25.8 38.4,27.8 36,27.8 C33.6,27.8 31.6,25.8 31.6,23.4 C31.6,21 33.6,19 36,19 Z" id="Shape"></path>
                    <path d="M21.6,45.2 C21.6,45.9 22.2,46.5 22.9,46.5 C23.6,46.5 24.2,45.9 24.2,45.2 C24.2,44.5 23.6,43.9 22.9,43.9 C22.2,43.9 21.6,44.5 21.6,45.2 Z" id="Path"></path>
                    <path d="M29.4,46.4 C30.1,46.4 30.7,45.8 30.7,45.1 C30.7,44.4 30.1,43.8 29.4,43.8 C28.7,43.8 28.1,44.4 28.1,45.1 C28.1,45.8 28.7,46.4 29.4,46.4 Z" id="Path"></path>
                    <path d="M36,43.9 C35.3,43.9 34.7,44.5 34.7,45.2 C34.7,45.9 35.3,46.5 36,46.5 C36.7,46.5 37.3,45.9 37.3,45.2 C37.3,44.5 36.7,43.9 36,43.9 Z" id="Path"></path>
                    <path d="M42.6,46.4 C43.3,46.4 43.9,45.8 43.9,45.1 C43.9,44.4 43.3,43.8 42.6,43.8 C41.9,43.8 41.3,44.4 41.3,45.1 C41.3,45.8 41.9,46.4 42.6,46.4 Z" id="Path"></path>
                    <path d="M49.2,46.4 C49.9,46.4 50.5,45.8 50.5,45.1 C50.5,44.4 49.9,43.8 49.2,43.8 C48.5,43.8 47.9,44.4 47.9,45.1 C47.9,45.8 48.5,46.4 49.2,46.4 Z" id="Path"></path>
                </g>
            </g>
        </g>
    </g>
</svg>