<?xml version="1.0" encoding="UTF-8"?>
<svg width="100px" height="100px" viewBox="0 0 100 100" version="1.1" xmlns="http://www.w3.org/2000/svg" xmlns:xlink="http://www.w3.org/1999/xlink">
    <title>F1E68DBB-F647-4E81-8426-3112D19366B5</title>
    <g id="Desktop" stroke="none" stroke-width="1" fill="none" fill-rule="evenodd">
        <g id="01_[Desktop]_Homepage" transform="translate(-259.000000, -605.000000)">
            <g id="Hoods" transform="translate(259.000000, 605.000000)">
                <rect id="Rectangle" x="0" y="0" width="100" height="100"></rect>
                <g id="27-hood-2" transform="translate(10.000000, 16.000000)" fill="#011E41" fill-rule="nonzero">
                    <path d="M79.2,61.9 L52.7,43.8 L52.7,0.8 C52.7,0.4 52.4,0.1 52,0.1 L27.7,0.1 C27.3,0.1 27,0.4 27,0.8 L27,43.9 L0.8,61.9 C0.5,62.1 0.4,62.5 0.6,62.8 L3.3,67.6 C3.4,67.8 3.6,67.9 3.9,67.9 L76.1,67.9 C76.3,67.9 76.6,67.8 76.7,67.6 L79.4,62.8 C79.5,62.5 79.4,62.1 79.2,61.9 Z M51.3,1.4 L51.3,43.6 L28.3,43.6 L28.3,1.4 L51.3,1.4 Z M75.7,66.6 L4.3,66.6 L2.1,62.7 L28.1,44.8 L51.6,44.8 L77.9,62.8 L75.7,66.6 Z" id="Shape"></path>
                </g>
            </g>
        </g>
    </g>
</svg>