<?xml version="1.0" encoding="UTF-8"?>
<svg width="144px" height="34px" viewBox="0 0 144 34" version="1.1" xmlns="http://www.w3.org/2000/svg" xmlns:xlink="http://www.w3.org/1999/xlink">
    <!-- Generator: sketchtool 52.6 (67491) - http://www.bohemiancoding.com/sketch -->
    <title>39B78670-8538-4300-9FC4-11E822B0F369</title>
    <desc>Created with sketchtool.</desc>
    <defs>
        <filter x="-0.2%" y="-2.1%" width="100.3%" height="104.2%" filterUnits="objectBoundingBox" id="filter-1">
            <feOffset dx="0" dy="1" in="SourceAlpha" result="shadowOffsetOuter1"></feOffset>
            <feColorMatrix values="0 0 0 0 0.866666667   0 0 0 0 0.866666667   0 0 0 0 0.866666667  0 0 0 0.5 0" type="matrix" in="shadowOffsetOuter1" result="shadowMatrixOuter1"></feColorMatrix>
            <feMerge>
                <feMergeNode in="shadowMatrixOuter1"></feMergeNode>
                <feMergeNode in="SourceGraphic"></feMergeNode>
            </feMerge>
        </filter>
    </defs>
    <g id="Comparison" stroke="none" stroke-width="1" fill="none" fill-rule="evenodd">
        <g id="4.0-Comparison" transform="translate(-50.000000, -64.000000)" fill="#011E41">
            <g id="Header-">
                <g id="Nav" filter="url(#filter-1)">
                    <g id="Nav-Copy">
                        <g id="Electrolux-Logo" transform="translate(50.000000, 64.000000)">
                            <path d="M4.89523512,17.2469302 C12.3276238,17.2469302 19.5276238,23.3697985 19.5276238,30.809836 C18.5973942,30.9999313 17.4239775,31.1405343 16.4298578,31.1405343 C8.60827996,31.1301859 2.07777535,24.8480425 1.78217154,17.2469302 L4.89523512,17.2469302 Z M16.4298578,1.7945446 C17.4795438,1.7945446 18.5973942,1.93447274 19.5289736,2.12006874 C19.5289736,9.56753007 12.326499,15.6960225 4.89276051,15.6960225 L1.78419622,15.6917482 C2.29396657,8.05711608 8.6112045,1.7945446 16.4298578,1.7945446 Z M21.0684081,2.53962818 C26.8783503,4.44328074 31.0766443,9.95154507 31.0926168,16.4591033 C31.1085893,22.8604781 26.9944321,28.3556944 21.0684081,30.3853273 L21.0684081,2.53962818 Z M0,32.9013342 L32.8707389,32.9013342 L32.8707389,0.028345571 L0,0.028345571 L0,32.9013342 Z" id="Fill-1"></path>
                            <path d="M43.8738597,19.5505702 L43.8738597,17.478644 L50.713466,17.478644 L50.713466,14.8366568 L43.8727349,14.8366568 L43.8727349,10.9906577 L51.1494479,10.9906577 L51.1494479,8.3558694 L41.0730473,8.3558694 L41.0730473,14.0191345 L41.0730473,19.4308889 C41.0730473,22.2301265 42.265586,24.1452523 45.0643737,24.5387158 C45.1206149,24.5526636 45.1757313,24.5627871 45.2265733,24.5636869 L45.2778653,24.5636869 C45.5642456,24.5956319 45.8575998,24.6172286 46.1637769,24.6172286 L51.3442675,24.6172286 L51.3442675,21.9851398 L46.1871733,21.9851398 C45.2972123,21.9851398 43.8738597,21.5462334 43.8738597,19.5505702" id="Fill-4"></path>
                            <polygon id="Fill-6" points="53.3335866 16.0398813 53.3335866 24.6213904 56.134399 24.6213904 56.134399 15.9836401 56.134399 8.35170755 53.3335866 8.35170755"></polygon>
                            <path d="M60.8362993,17.4553601 C60.953506,16.0250336 62.4072289,14.8763631 64.1655541,14.8763631 C65.8066727,14.8763631 67.1431889,16.0486549 67.1431889,17.4553601 L60.8362993,17.4553601 Z M64.1655541,12.4845368 C60.6252823,12.4845368 57.9758713,14.9231558 57.9758713,18.7212373 L57.9758713,18.8152726 C57.9758713,22.5197688 60.5316969,24.9113701 64.2359681,24.9113701 C66.0179147,24.9113701 67.6824296,24.418922 69.2065665,22.8011998 L67.5186552,21.1598563 C66.6273445,22.0507171 65.760105,22.5197688 64.3295535,22.5197688 C62.2430045,22.5197688 60.8596957,21.3004593 60.7661103,19.4247024 L69.9568242,19.4247024 C70.0038419,18.9558756 70.0038419,18.4402562 70.0038419,18.4402562 C70.0038419,15.1341728 67.6824296,12.4845368 64.1655541,12.4845368 Z" id="Fill-8"></path>
                            <path d="M77.8739672,14.9935023 C79.1402943,14.9935023 80.0781728,15.462329 80.8752232,16.2830008 L82.6103771,14.4776579 C81.2504646,13.023935 79.6325174,12.4376766 77.8739672,12.4376766 C74.3100741,12.4376766 71.449871,15.0870876 71.449871,18.6979984 C71.449871,22.3089092 74.3100741,24.9583203 77.8739672,24.9583203 C79.6325174,24.9583203 81.2504646,24.3720619 82.6103771,22.918564 L80.8752232,21.1127711 C80.0781728,21.9336679 79.1402943,22.4024946 77.8739672,22.4024946 C75.8108146,22.4024946 74.239885,20.8315651 74.239885,18.6979984 C74.239885,16.5644318 75.8108146,14.9935023 77.8739672,14.9935023" id="Fill-10"></path>
                            <path d="M87.1546446,19.5545296 L87.1512701,19.5543046 L87.1512701,15.4007786 L89.698997,15.4007786 L89.698997,12.8562012 L87.1550945,12.8562012 L87.1550945,8.35195501 L84.3538322,8.35195501 L84.3538322,14.1875432 L84.3538322,19.7196538 L84.361706,19.7192039 C84.4415685,22.361866 85.6431058,24.1629345 88.3451586,24.5426752 C88.4013998,24.556623 88.4562912,24.5669714 88.5073582,24.5678713 L88.5586502,24.5678713 C88.8452554,24.5995913 89.1383846,24.6211879 89.4447868,24.6211879 L89.7410655,24.6211879 L89.7514138,21.9893242 L89.4679581,21.9893242 C88.5779972,21.9893242 87.1546446,21.5504177 87.1546446,19.5545296" id="Fill-12"></path>
                            <path d="M94.8337747,14.6064052 L94.8337747,12.8568536 L92.0554588,12.8568536 L92.0554588,18.6222528 L92.0554588,24.6213904 L94.8337747,24.6213904 L94.8337747,18.435307 C94.8337747,16.4979097 96.0706315,15.2839994 98.0075788,15.2839994 C98.4512095,15.2839994 98.8487224,15.3303421 99.1751464,15.4009811 L99.1751464,12.6930792 C99.0581647,12.6701328 98.6386052,12.62379 98.3353526,12.62379 C96.6537404,12.62379 95.3934873,13.3938447 94.8337747,14.6064052" id="Fill-14"></path>
                            <path d="M106.023571,22.4274432 C103.946246,22.4274432 102.38274,20.8164699 102.38274,18.7391445 C102.38274,16.6609192 103.946246,15.0508458 106.023571,15.0508458 C108.078175,15.0508458 109.664402,16.6609192 109.664402,18.7391445 C109.664402,20.8164699 108.078175,22.4274432 106.023571,22.4274432 M106.023571,12.5069433 C102.451804,12.5069433 99.6039744,15.2137204 99.6039744,18.7391445 C99.6039744,22.2627689 102.451804,24.9715707 106.023571,24.9715707 C109.570817,24.9715707 112.442493,22.2627689 112.442493,18.7391445 C112.442493,15.2137204 109.570817,12.5069433 106.023571,12.5069433" id="Fill-16"></path>
                            <polygon id="Fill-18" points="114.164937 15.7592376 114.164937 24.6212779 116.967324 24.6212779 116.967324 15.87172 116.967324 8.35182003 114.164937 8.35182003"></polygon>
                            <path d="M127.069213,19.6955601 C127.069213,21.5625434 125.972509,22.3571192 124.501014,22.3571192 C123.030419,22.3571192 121.93394,21.5625434 121.93394,19.7198563 L121.93394,12.8568536 L119.109057,12.8568536 L119.109057,16.2646212 L119.109057,19.9531448 C119.109057,23.3145696 121.560049,24.925093 124.478068,24.925093 C127.419483,24.925093 129.892522,23.2913982 129.892522,19.8827308 L129.892522,16.2643962 L129.892522,12.8568536 L127.069213,12.8568536 L127.069213,19.6955601 Z" id="Fill-20"></path>
                            <polygon id="Fill-22" points="140.491088 20.8590558 138.724439 18.3891667 140.911773 15.4092823 142.78528 12.8570561 139.727783 12.8570561 137.182755 16.3815804 134.615456 12.8570561 131.58113 12.8570561 133.321234 15.2371842 135.642871 18.4121131 133.209876 21.8007586 131.184292 24.6213679 134.195447 24.6213679 137.182755 20.4660422 140.170738 24.6213679 143.182118 24.6213679"></polygon>
                        </g>
                    </g>
                </g>
            </g>
        </g>
    </g>
</svg>