<?xml version="1.0" encoding="UTF-8"?>
<svg width="100px" height="100px" viewBox="0 0 100 100" version="1.1" xmlns="http://www.w3.org/2000/svg" xmlns:xlink="http://www.w3.org/1999/xlink">
    <title>28396564-CBD8-45F0-8CF3-FC2DE6F6D78D</title>
    <g id="Desktop" stroke="none" stroke-width="1" fill="none" fill-rule="evenodd">
        <g id="01_[Desktop]_Homepage" transform="translate(-1287.000000, -605.000000)">
            <g id="Microwave" transform="translate(1287.000000, 605.000000)">
                <rect id="Rectangle" x="0" y="0" width="100" height="100"></rect>
                <g id="11-microwave" transform="translate(17.000000, 27.000000)" fill="#011E41" fill-rule="nonzero">
                    <path d="M62.9,0.1 L3.1,0.1 C1.8,0.1 0.7,1.2 0.7,2.5 L0.7,39.6 C0.7,40.9 1.8,42 3.1,42 L63,42 C64.3,42 65.4,40.9 65.4,39.6 L65.4,2.5 C65.3,1.2 64.3,0.1 62.9,0.1 Z M2,39.7 L2,2.5 C2,1.9 2.5,1.4 3.1,1.4 L52.8,1.4 L52.8,40.7 L3.1,40.7 C2.5,40.7 2,40.3 2,39.7 Z M64,39.7 C64,40.3 63.5,40.8 62.9,40.8 L53.8,40.8 L53.8,1.4 L62.9,1.4 C63.5,1.4 64,1.9 64,2.5 L64,39.7 Z" id="Shape"></path>
                    <path d="M61,44.6 L5,44.6 C4.6,44.6 4.4,44.9 4.4,45.2 C4.4,45.5 4.7,45.8 5,45.8 L61,45.8 C61.4,45.8 61.6,45.5 61.6,45.2 C61.6,44.9 61.3,44.6 61,44.6 Z" id="Path"></path>
                    <path d="M44.2,5.5 L44.2,36.8 L49.4,36.8 L49.4,5.5 L44.2,5.5 Z M48.3,35.7 L45.2,35.7 L45.2,6.5 L48.3,6.5 L48.3,35.7 Z" id="Shape"></path>
                </g>
            </g>
        </g>
    </g>
</svg>