<?xml version="1.0" encoding="UTF-8"?>
<svg width="23px" height="28px" viewBox="0 0 23 28" version="1.1" xmlns="http://www.w3.org/2000/svg" xmlns:xlink="http://www.w3.org/1999/xlink">
    <!-- Generator: sketchtool 53.2 (72643) - https://sketchapp.com -->
    <title>A0EBBFEB-4AF9-4FFA-ACDA-97B2B71AEEEA</title>
    <desc>Created with sketchtool.</desc>
    <g id="Elements" stroke="none" stroke-width="1" fill="none" fill-rule="evenodd">
        <g id="Icons" transform="translate(-588.000000, -441.000000)" fill="#011E41">
            <path d="M600.295625,441 C592.653327,441 588.8,446.478321 588.8,451.047611 C588.8,453.813586 589.84847,456.27387 592.094233,457.190946 C592.461599,457.342451 592.792766,457.196309 592.898685,456.78872 C592.973767,456.507161 593.149406,455.795221 593.228511,455.497573 C593.335771,455.094006 593.292867,454.953227 592.99656,454.600609 C592.348976,453.83772 591.934683,452.848243 591.934683,451.447156 C591.934683,447.38333 594.975513,443.744524 599.851836,443.744524 C604.171745,443.744524 606.54488,446.383127 606.54488,449.90797 C606.54488,454.545638 604.492185,458.459299 601.445992,458.459299 C599.763346,458.459299 598.504378,457.067596 598.906604,455.360817 C599.390616,453.32287 600.326463,451.125375 600.326463,449.654567 C600.326463,448.337947 599.619885,447.239869 598.158463,447.239869 C596.438276,447.239869 595.055958,449.01905 595.055958,451.402911 C595.055958,452.920644 595.569467,453.947662 595.569467,453.947662 C595.569467,453.947662 593.809057,461.404936 593.500684,462.71083 C592.886618,465.313234 593.408172,468.500206 593.452417,468.821987 C593.479232,469.013715 593.723249,469.059301 593.834531,468.91584 C593.99274,468.708023 596.042753,466.179361 596.738605,463.65204 C596.935696,462.937418 597.86886,459.231573 597.86886,459.231573 C598.427955,460.298814 600.062334,461.23466 601.79861,461.23466 C606.968558,461.23466 610.475971,456.52191 610.475971,450.213662 C610.477311,445.441918 606.436279,441 600.295625,441" id="pinterest"></path>
        </g>
    </g>
</svg>