<?xml version="1.0" encoding="UTF-8"?>
<svg width="100px" height="100px" viewBox="0 0 100 100" version="1.1" xmlns="http://www.w3.org/2000/svg" xmlns:xlink="http://www.w3.org/1999/xlink">
    <title>45D9F796-AD2C-4CF0-8FE2-B3455A62A4A4</title>
    <g id="Desktop" stroke="none" stroke-width="1" fill="none" fill-rule="evenodd">
        <g id="01_[Desktop]_Homepage" transform="translate(-670.000000, -605.000000)">
            <g id="Refrigerators" transform="translate(670.000000, 605.000000)">
                <rect id="Rectangle" x="0" y="0" width="100" height="100"></rect>
                <g id="46-mdr-4" transform="translate(23.000000, 0.000000)" fill="#011E41">
                    <path d="M50.5,0.6 L3.5,0.6 C1.9,0.6 0.6,1.9 0.6,3.5 L0.6,93 C0.6,94.6 1.9,95.9 3.5,95.9 L50.5,95.9 C52.1,95.9 53.4,94.6 53.4,93 L53.4,3.6 C53.4,2 52.1,0.6 50.5,0.6 Z M52.1,3.6 L52.1,52.7 L24,52.7 L24,1.9 L50.5,1.9 C51.4,1.9 52.1,2.7 52.1,3.6 Z M52.1,53.7 L52.1,69.7 L1.9,69.7 L1.9,53.7 C1.9,53.7 52.1,53.7 52.1,53.7 Z M3.5,1.9 L23,1.9 L23,52.6 L1.9,52.6 L1.9,3.6 C1.9,2.7 2.6,1.9 3.5,1.9 Z M50.5,94.7 L3.5,94.7 C2.6,94.7 1.9,94 1.9,93.1 L1.9,70.7 L52.2,70.7 L52.2,93 C52.1,93.9 51.4,94.7 50.5,94.7 Z" id="Shape"></path>
                    <path d="M48.5,98.1 L5.5,98.1 C5.1,98.1 4.9,98.4 4.9,98.7 C4.9,99 5.2,99.3 5.5,99.3 L48.5,99.3 C48.9,99.3 49.1,99 49.1,98.7 C49.1,98.4 48.8,98.1 48.5,98.1 Z" id="Path"></path>
                    <path d="M18.1,23.7 L5.3,23.7 L5.3,45 L18.1,45 L18.1,23.7 L18.1,23.7 Z M17.5,24.3 L17.5,29.8 L5.9,29.8 L5.9,24.3 L17.5,24.3 Z M5.9,44.4 L5.9,30.4 L17.5,30.4 L17.5,44.4 L5.9,44.4 Z" id="Shape"></path>
                    <rect id="Rectangle" x="36.9" y="9.7" width="2" height="2"></rect>
                </g>
            </g>
        </g>
    </g>
</svg>