<?xml version="1.0" encoding="UTF-8"?>
<svg width="32px" height="26px" viewBox="0 0 32 26" version="1.1" xmlns="http://www.w3.org/2000/svg" xmlns:xlink="http://www.w3.org/1999/xlink">
    <!-- Generator: sketchtool 53.2 (72643) - https://sketchapp.com -->
    <title>2907BAC6-9C04-4102-9502-DD23BEC10F74</title>
    <desc>Created with sketchtool.</desc>
    <g id="Elements" stroke="none" stroke-width="1" fill="none" fill-rule="evenodd">
        <g id="Icons" transform="translate(-723.000000, -442.000000)" fill="#011E41">
            <path d="M732.946023,467.598551 C744.64591,467.598551 751.044607,457.901854 751.044607,449.499968 C751.044607,449.227304 751.044607,448.95464 751.025424,448.672385 C752.270909,447.768072 753.341013,446.659604 754.195999,445.375755 C753.039575,445.890939 751.803681,446.230741 750.539014,446.377349 C751.87219,445.57991 752.864193,444.334425 753.341013,442.856011 C752.095528,443.595903 750.723987,444.120678 749.30449,444.402933 C746.89299,441.844825 742.866059,441.718769 740.30795,444.13027 C738.655524,445.686783 737.953997,448.001001 738.470551,450.209716 C733.354334,449.956235 728.588881,447.533773 725.359389,443.565759 C723.667228,446.474631 724.533176,450.189164 727.324213,452.056706 C726.313028,452.027933 725.321024,451.755269 724.435894,451.259267 L724.435894,451.337367 C724.435894,454.361333 726.5761,456.968768 729.54252,457.571643 C728.608063,457.825125 727.625651,457.863489 726.672012,457.678516 C727.509187,460.265398 729.891913,462.04525 732.614442,462.093206 C730.359141,463.863466 727.577695,464.826696 724.718149,464.826696 C724.211186,464.826696 723.705593,464.797923 723.2,464.739005 C726.097911,466.606548 729.483602,467.598551 732.946023,467.598551" id="twitter"></path>
        </g>
    </g>
</svg>