<?xml version="1.0" encoding="UTF-8"?>
<svg width="100px" height="100px" viewBox="0 0 100 100" version="1.1" xmlns="http://www.w3.org/2000/svg" xmlns:xlink="http://www.w3.org/1999/xlink">
    <title>09AFBFE0-87F5-4C63-ADB2-558FEF2F0105</title>
    <g id="Desktop" stroke="none" stroke-width="1" fill="none" fill-rule="evenodd">
        <g id="01_[Desktop]_Homepage" transform="translate(-875.000000, -605.000000)">
            <g id="Vacuum" transform="translate(875.000000, 605.000000)">
                <rect id="Rectangle" x="0" y="0" width="100" height="100"></rect>
                <g id="16-vacuum-cleaner" transform="translate(26.000000, 21.000000)" fill="#011E41" fill-rule="nonzero">
                    <path d="M40.5,15.1 C39.5,8.4 35.2,2.1 31,1.1 C27,0.2 20.5,0.2 16.6,1.1 C12.4,2.1 8.2,8.4 7.2,15.1 L5.1,28.9 C4,35.5 3.2,44.5 3.2,48.9 C3.3,53.7 10.4,57.6 19,57.6 L29,57.6 C37.6,57.6 44.7,53.7 44.8,48.9 L44.8,48.9 C44.8,44.5 43.9,35.6 42.8,28.9 L40.5,15.1 Z M8.5,15.3 C9.4,9.1 13.3,3.2 16.9,2.3 C18.8,1.8 21.3,1.6 23.8,1.6 C26.3,1.6 28.8,1.8 30.7,2.3 C34.4,3.2 38.3,9.1 39.2,15.3 L41.4,29.1 C41.6,30.2 41.8,31.3 41.9,32.5 L37.5,34.5 C34.9,35.7 32.6,35.9 32.1,35.4 C31.3,34.6 29.1,33.8 27.1,33.7 C25.3,33.6 22.3,33.6 20.4,33.7 C18.5,33.8 16.2,34.6 15.3,35.4 C14.8,35.9 12.4,35.8 9.8,34.5 L5.6,32.5 C5.8,31.3 5.9,30.1 6.1,29 L8.5,15.3 Z M29,56.3 L19,56.3 C11.2,56.3 4.5,52.9 4.5,48.9 C4.5,45.5 5,39.4 5.7,33.7 L9.6,35.5 C11.1,36.2 13,36.7 14.4,36.7 C15.2,36.7 15.9,36.5 16.3,36.2 C17,35.6 18.9,34.9 20.7,34.8 C22.5,34.7 25.4,34.7 27.2,34.8 C29,34.9 30.9,35.6 31.5,36.2 C32.6,37.3 35.7,36.6 38.1,35.5 L42.2,33.6 C43,39.3 43.5,45.5 43.5,48.9 C43.5,52.9 36.8,56.3 29,56.3 Z" id="Shape"></path>
                    <path d="M21.4,9.1 L26.6,9.1 C28.2,9.1 29.4,7.8 29.4,6.3 C29.4,4.8 28.1,3.5 26.6,3.5 L21.4,3.5 C19.8,3.5 18.6,4.8 18.6,6.3 C18.6,7.8 19.8,9.1 21.4,9.1 Z M21.4,4.5 L26.6,4.5 C27.6,4.5 28.4,5.3 28.4,6.3 C28.4,7.3 27.6,8.1 26.6,8.1 L21.4,8.1 C20.4,8.1 19.6,7.3 19.6,6.3 C19.6,5.3 20.4,4.5 21.4,4.5 Z" id="Shape"></path>
                    <path d="M24,26.2 C27.6,26.2 30.6,23.2 30.6,19.6 C30.6,16 27.6,13 24,13 C20.4,13 17.4,16 17.4,19.6 C17.4,23.2 20.4,26.2 24,26.2 Z M24,14.2 C26.9,14.2 29.3,16.6 29.3,19.5 C29.3,22.4 26.9,24.8 24,24.8 C21.1,24.8 18.7,22.4 18.7,19.5 C18.7,16.6 21.1,14.2 24,14.2 Z" id="Shape"></path>
                    <path d="M46.9,43 C46.9,42.6 46.5,42.4 46.2,42.4 C45.8,42.4 45.6,42.7 45.6,43.1 L46.4,57.1 C46.4,57.4 46.7,57.7 47,57.7 L47,57.7 C47.4,57.7 47.6,57.4 47.6,57 L46.9,43 Z" id="Path"></path>
                    <path d="M1.8,42.4 C1.4,42.4 1.1,42.6 1.1,43 L0.3,57 C0.3,57.4 0.5,57.7 0.9,57.7 L0.9,57.7 C1.2,57.7 1.5,57.4 1.5,57.1 L2.3,43.1 C2.4,42.7 2.1,42.4 1.8,42.4 Z" id="Path"></path>
                </g>
            </g>
        </g>
    </g>
</svg>