<?xml version="1.0" encoding="utf-8"?>
<!-- Generator: Adobe Illustrator 24.1.0, SVG Export Plug-In . SVG Version: 6.00 Build 0)  -->
<svg version="1.1" id="Layer_1" xmlns="http://www.w3.org/2000/svg" xmlns:xlink="http://www.w3.org/1999/xlink" x="0px" y="0px"
	 viewBox="0 0 55 55" style="enable-background:new 0 0 55 55;" xml:space="preserve">
<style type="text/css">
	.st0{fill:#011E41;}
</style>
<path class="st0" d="M28.9,9.2l-1.4-1.7l-1.4,1.7c-2.5,3.1-6.2,4.8-10.2,4.8h-3.7v16.3c0,4.7,2.5,9.1,6.6,11.5l8.6,4.9l8.6-4.9
	c4.1-2.3,6.6-6.7,6.6-11.5V14h-3.7C35.1,14,31.4,12.3,28.9,9.2z M41.3,30.4c0,4.2-2.3,8.1-5.9,10.2l-7.9,4.5l-7.9-4.5
	c-3.6-2.1-5.9-6-5.9-10.2V15.5h2.2c4.4,0,8.5-2,11.3-5.4l0.3-0.4l0.3,0.4c2.8,3.4,6.9,5.4,11.3,5.4h2.2V30.4z"/>
<path class="st0" d="M33.6,37.6l0.7,1.3c2.9-1.8,4.7-5,4.7-8.5v-5.9h-1.5v5.9C37.6,33.3,36.1,36.1,33.6,37.6z"/>
<polygon class="st0" points="22.3,34.4 37,19.7 36.1,18.8 22.3,32.5 18.9,29.1 18,30 "/>
<path id="Shape" class="st0" d="M27.4,1.7c14.2,0,25.8,11.5,25.8,25.8S41.7,53.3,27.4,53.3S1.6,41.7,1.6,27.5
	C1.7,13.3,13.2,1.7,27.4,1.7 M27.4,0C12.2,0-0.1,12.3-0.1,27.5S12.2,55,27.4,55s27.5-12.3,27.5-27.5c0-7.3-2.9-14.3-8.1-19.4
	S34.7,0,27.4,0z"/>
</svg>
