<?xml version="1.0" encoding="UTF-8"?>
<svg width="100px" height="100px" viewBox="0 0 100 100" version="1.1" xmlns="http://www.w3.org/2000/svg" xmlns:xlink="http://www.w3.org/1999/xlink">
    <title>50D7D6E9-6F7F-4F08-848D-0CC3201AD712</title>
    <g id="Desktop" stroke="none" stroke-width="1" fill="none" fill-rule="evenodd">
        <g id="01_[Desktop]_Homepage" transform="translate(-53.000000, -605.000000)">
            <g id="washing-machine" transform="translate(53.000000, 605.000000)">
                <rect id="Rectangle" x="0" y="0" width="100" height="100"></rect>
                <g id="32-front-load" transform="translate(22.000000, 10.000000)" fill="#011E41" fill-rule="nonzero">
                    <path d="M53.9,0.3 L2.1,0.3 C0.9,0.3 0,1.2 0,2.4 L0,74.4 C0,75.6 0.9,76.5 2.1,76.5 L53.8,76.5 C55,76.5 55.9,75.6 55.9,74.4 L55.9,2.4 C56,1.2 55,0.3 53.9,0.3 Z M54.7,74.3 C54.7,74.7 54.3,75.1 53.9,75.1 L2.1,75.1 C1.6,75.1 1.3,74.7 1.3,74.3 L1.3,2.3 C1.3,1.9 1.7,1.5 2.1,1.5 L53.8,1.5 C54.3,1.5 54.6,1.9 54.6,2.3 L54.7,74.3 L54.7,74.3 Z" id="Shape"></path>
                    <path d="M28,17.9 C16.1,17.9 6.4,27.6 6.4,39.5 C6.4,51.4 16.1,61.1 28,61.1 C39.9,61.1 49.6,51.4 49.6,39.5 C49.6,27.6 39.9,17.9 28,17.9 Z M28,60.1 C16.7,60.1 7.5,50.9 7.5,39.6 C7.5,28.2 16.7,19 28,19 C39.3,19 48.5,28.2 48.5,39.5 C48.5,50.9 39.3,60.1 28,60.1 Z" id="Shape"></path>
                    <path d="M28,23.4 C19.1,23.4 11.8,30.7 11.8,39.6 C11.8,48.5 19.1,55.8 28,55.8 C36.9,55.8 44.2,48.5 44.2,39.6 C44.2,30.6 36.9,23.4 28,23.4 Z M28,54.6 C19.7,54.6 12.9,47.8 12.9,39.5 C12.9,31.2 19.7,24.4 28,24.4 C36.3,24.4 43.1,31.2 43.1,39.5 C43.1,47.9 36.3,54.6 28,54.6 Z" id="Shape"></path>
                    <path d="M50.9,78.5 L5.1,78.5 C4.7,78.5 4.5,78.8 4.5,79.1 C4.5,79.4 4.8,79.7 5.1,79.7 L50.9,79.7 C51.3,79.7 51.5,79.4 51.5,79.1 C51.5,78.8 51.3,78.5 50.9,78.5 Z" id="Path"></path>
                    <path d="M28,13.7 C30.1,13.7 31.9,12 31.9,9.8 C31.9,7.7 30.2,5.9 28,5.9 C25.9,5.9 24.1,7.6 24.1,9.8 C24.1,11.9 25.9,13.7 28,13.7 Z M28,6.9 C29.6,6.9 30.8,8.2 30.8,9.7 C30.8,11.3 29.5,12.5 28,12.5 C26.5,12.5 25.2,11.2 25.2,9.7 C25.2,8.2 26.4,6.9 28,6.9 Z" id="Shape"></path>
                </g>
            </g>
        </g>
    </g>
</svg>