<?xml version="1.0" encoding="UTF-8"?>
<svg width="35px" height="26px" viewBox="0 0 35 26" version="1.1" xmlns="http://www.w3.org/2000/svg" xmlns:xlink="http://www.w3.org/1999/xlink">
    <!-- Generator: sketchtool 53.2 (72643) - https://sketchapp.com -->
    <title>53B12580-3DAB-4633-AE9E-7E404EEB16FD</title>
    <desc>Created with sketchtool.</desc>
    <g id="Elements" stroke="none" stroke-width="1" fill="none" fill-rule="evenodd">
        <g id="Icons" transform="translate(-654.000000, -442.000000)" fill="#011E41">
            <path d="M667.204032,461.306048 L667.204032,448.702016 L677.707392,455.004032 L667.204032,461.306048 Z M687.864,447.839168 C687.864,447.839168 687.536064,445.368896 686.528064,444.280256 C685.251264,442.854272 683.81856,442.846208 683.162688,442.764224 C678.460032,442.4 671.40672,442.4 671.40672,442.4 L671.391936,442.4 C671.391936,442.4 664.338624,442.4 659.637312,442.764224 C658.98144,442.846208 657.55008,442.854272 656.270592,444.280256 C655.26528,445.368896 654.936,447.839168 654.936,447.839168 C654.936,447.839168 654.6,450.73952 654.6,453.639872 L654.6,456.35744 C654.6,459.26048 654.936,462.159488 654.936,462.159488 C654.936,462.159488 655.263936,464.62976 656.270592,465.715712 C657.55008,467.141696 659.227392,467.098688 659.976,467.247872 C662.664,467.522048 671.4,467.608064 671.4,467.608064 C671.4,467.608064 678.460032,467.595968 683.162688,467.235776 C683.81856,467.151104 685.251264,467.14304 686.528064,465.715712 C687.53472,464.631104 687.864,462.159488 687.864,462.159488 C687.864,462.159488 688.2,459.26048 688.2,456.358784 L688.2,453.639872 C688.2,450.73952 687.864,447.839168 687.864,447.839168 L687.864,447.839168 Z" id="youtube"></path>
        </g>
    </g>
</svg>